<?xml version="1.0" encoding="utf-8"?>
<!-- Generator: Adobe Illustrator 16.0.0, SVG Export Plug-In . SVG Version: 6.00 Build 0)  -->
<!DOCTYPE svg PUBLIC "-//W3C//DTD SVG 1.1//EN" "http://www.w3.org/Graphics/SVG/1.1/DTD/svg11.dtd">
<svg version="1.1" id="Layer_1" xmlns="http://www.w3.org/2000/svg" xmlns:xlink="http://www.w3.org/1999/xlink" x="0px" y="0px"
	 width="159.85px" height="37.926px" viewBox="0 0 159.85 37.926" enable-background="new 0 0 159.85 37.926" xml:space="preserve">
<g id="g10" transform="matrix(1.25,0,0,-1.25,-2289.1394,521.88465)">
	<g id="g12" transform="scale(1,-1)">
		<path id="path286" fill="#222222" d="M1890.687-406.954C1890.687-406.954,1890.688-406.954,1890.687-406.954l-0.766,2.715
			L1890.687-406.954L1890.687-406.954z"/>
		<path id="path288" fill="#222222" d="M1894.628-401.058l-0.844-0.005L1894.628-401.058z"/>
		<path id="path290" fill="#222222" d="M1894.411-397.002L1894.411-397.002l-5.059,0.019L1894.411-397.002L1894.411-397.002z"/>
		<path id="path292" fill="#222222" d="M1895.473-401.053l-0.845-0.005L1895.473-401.053z"/>
		<path id="path294" fill="#222222" d="M1894.856-397.348l0.882-3.361L1894.856-397.348L1894.856-397.348L1894.856-397.348z"/>
		<path id="path296" fill="#222222" d="M1913.48-412.824l-1.641,7.717L1913.48-412.824z"/>
		<path id="path298" fill="#222222" d="M1909.26-412.824l-1.247,5.765L1909.26-412.824L1909.26-412.824L1909.26-412.824z"/>
		<path id="path300" fill="#222222" d="M1913.2-413.17h-3.511c-0.195,0-0.387,0.155-0.43,0.346l-1.247,5.765l-1.245,5.766
			c-0.041,0.191-0.234,0.346-0.43,0.346h-2.13h-0.355c-2.458,0-2.173-1.7-1.669-4.03c0.005-0.023,0.01-0.045,0.015-0.07l0.056-0.293
			c0.004-0.02,0.007-0.038,0.01-0.056l0.112-0.598l0.12-0.641c0.036-0.193,0.091-0.475,0.128-0.652l0.566-2.769l0.567-2.767
			c0.039-0.191-0.088-0.348-0.283-0.348h-3.603c-0.194,0-0.387,0.156-0.427,0.346l-0.774,3.676l-0.775,3.675
			c0,0.002,0,0.003,0,0.005l-0.072,0.341c-0.892,4.073-0.656,7.959,4.194,8.08c0.08,0.003,0.141,0.003,0.141,0.003h7.613
			c0.194,0,0.387-0.156,0.428-0.346l1.641-7.717l1.642-7.717C1913.522-413.015,1913.396-413.17,1913.2-413.17"/>
		<path id="path302" fill="#222222" d="M1927.202-400.907c0.195,0,0.323,0.155,0.283,0.347l-0.341,1.666"/>
		<path id="path304" fill="#222222" d="M1926.803-397.227l0.341-1.667L1926.803-397.227L1926.803-397.227"/>
		<path id="path306" fill="#222222" d="M1926.377-396.877h0.003c-1.033,0.008-4.136,0.032-6.469,0.032
			c2.84,0,6.468-0.032,6.468-0.032"/>
		<path id="path308" fill="#222222" d="M1917.814-403.053c-0.003-0.183,0.205-0.497,0.4-0.497l-0.439-0.007
			C1917.578-401.57,1917.814-403.053,1917.814-403.053"/>
		<path id="path310" fill="#222222" d="M1920.228-396.847c-0.023,0-0.045,0-0.068,0.002
			C1920.181-396.847,1920.205-396.847,1920.228-396.847"/>
		<path id="path312" fill="#222222" d="M1927.202-400.907c0.195,0,0.323,0.155,0.283,0.347l-0.341,1.666l-0.055,0.271"/>
		<path id="path314" fill="#222222" d="M1921.889-396.851h-0.014H1921.889z"/>
		<path id="path316" fill="#222222" d="M1921.028-396.848h-0.051H1921.028z"/>
		<path id="path318" fill="#222222" d="M1920.766-396.848c-0.029,0-0.056,0-0.083,0.001
			C1920.71-396.848,1920.737-396.848,1920.766-396.848"/>
		<path id="path320" fill="#222222" d="M1920.497-396.847h-0.073H1920.497z"/>
		<path id="path322" fill="#222222" d="M1920.978-396.848c-0.071,0-0.142,0-0.212,0
			C1920.835-396.848,1920.906-396.848,1920.978-396.848"/>
		<path id="path324" fill="#222222" d="M1921.875-396.851c-0.284,0.001-0.568,0.003-0.847,0.003
			C1921.307-396.848,1921.591-396.85,1921.875-396.851"/>
		<path id="path326" fill="#222222" d="M1926.379-396.877L1926.379-396.877c-0.757,0.005-2.627,0.02-4.49,0.027
			C1923.752-396.857,1925.621-396.872,1926.379-396.877"/>
		<path id="path328" fill="#222222" d="M1926.803-397.227l0.285-1.396L1926.803-397.227
			C1926.803-397.227,1926.803-397.227,1926.803-397.227"/>
		<path id="path330" fill="#222222" d="M1920.683-396.847h-0.186H1920.683z"/>
		<path id="path332" fill="#222222" d="M1920.16-396.845h-0.251H1920.16z"/>
		<path id="path334" fill="#222222" d="M1920.424-396.847h-0.197H1920.424z"/>
		<path id="path336" fill="#222222" d="M1869.078-403.012l0.546-2.417l-0.624,2.763l-0.599,2.814l0.525-2.466
			C1868.966-402.509,1869.035-402.821,1869.078-403.012"/>
		<path id="path338" fill="#222222" d="M1875.605-413.212h-3.855c-0.195,0-0.39,0.155-0.433,0.345l-0.365,1.614l-0.366,1.613
			c-0.043,0.19,0.081,0.345,0.276,0.345h3.885c0.195,0,0.389-0.155,0.43-0.345l0.353-1.613l0.354-1.613l0,0
			C1875.926-413.056,1875.801-413.212,1875.605-413.212"/>
		<path id="path340" fill="#222222" d="M1874.766-407.844v-0.002l-1.131,5.231L1874.766-407.844L1874.766-407.844z"/>
		<path id="path342" fill="#222222" d="M1863.567-390.515c0,0,1.943,0.026,3.178,0.026c-0.939,0-2.489-0.017-3.18-0.026
			c0,0,0,0,0.003,0"/>
		<path id="path344" fill="#222222" d="M1870.169-407.846l-0.546,2.417L1870.169-407.846z"/>
		<path id="path346" fill="#222222" d="M1874.487-408.191h-3.885c-0.194,0-0.389,0.156-0.432,0.345l-0.546,2.417l-0.545,2.417
			c-0.043,0.191-0.111,0.503-0.151,0.694l-0.524,2.466l-0.525,2.467c-0.04,0.19-0.124,0.498-0.187,0.683
			c0,0-0.726,2.159-1.946,2.134c-0.052-0.001-0.102-0.001-0.152-0.002c-0.591-0.012-1.056-0.02-1.056-0.02l0,0
			c-0.194-0.003-0.39,0.148-0.436,0.338l0,0l-0.403,1.693l-0.402,1.694c-0.045,0.189,0.076,0.345,0.27,0.348
			c0.692,0.009,2.242,0.025,3.18,0.025c3.048,0,4.655-1.688,5.685-6.548l1.205-5.577l1.131-5.231
			C1874.808-408.035,1874.683-408.191,1874.487-408.191"/>
		<path id="path348" fill="#222222" d="M1929.678-397.044c-0.195,0-0.321-0.156-0.281-0.346l2.923-13.69"/>
		<path id="path350" fill="#222222" d="M1933.74-397.391l1.182-5.843L1933.74-397.391z"/>
		<path id="path352" fill="#222222" d="M1929.441-397.217c-0.023-0.095-0.01-0.33,0.031-0.52l1.388-6.498l-1.462,6.845
			c-0.041,0.19,0.085,0.346,0.281,0.346h0.355C1929.838-397.044,1929.464-397.122,1929.441-397.217"/>
		<path id="path354" fill="#222222" d="M1933.508-397.122c-0.106,0.043-0.352,0.078-0.548,0.078h0.355
			c0.194,0,0.387-0.156,0.426-0.348l0.069-0.348C1933.772-397.547,1933.614-397.164,1933.508-397.122"/>
		<path id="path356" fill="#222222" d="M1934.331-400.312l0.522-2.579c0,0.002,0,0.004,0,0.005l-0.52,2.573H1934.331z"/>
		<path id="path358" fill="#222222" d="M1945.863-410.164l0.161,0.666c0.044,0.19-0.079,0.345-0.273,0.345"/>
		<path id="path360" fill="#222222" d="M1933.81-397.739l0.52-2.573L1933.81-397.739z"/>
		<path id="path362" fill="#222222" d="M1945.703-410.844L1945.703-410.844l0.159,0.68L1945.703-410.844z"/>
		<path id="path364" fill="#222222" d="M1934.853-402.891c0.038-0.191,0.103-0.5,0.143-0.69l0.558-2.609l-0.631,2.956
			L1934.853-402.891z"/>
		<path id="path366" fill="#222222" d="M1932.367-411.304c-0.039,0.184-0.089,0.416-0.122,0.57l-1.386,6.5l1.461-6.846
			L1932.367-411.304z"/>
		<path id="path368" fill="#222222" d="M1946.024-409.498l-0.161-0.666l-0.159-0.68l-0.081-0.345
			c-0.316-1.226-1.242-1.934-3.253-1.934l-3.131-0.003l-2.884-0.004h-0.248h-2.998c-0.195,0-0.387,0.155-0.427,0.347l0,0
			l-0.144,0.678l-0.17,0.802l-0.047,0.223l-1.461,6.846l-1.388,6.498c-0.041,0.19-0.055,0.424-0.03,0.52
			c0.023,0.095,0.397,0.173,0.591,0.173h2.928c0.195,0,0.441-0.035,0.548-0.078c0.105-0.042,0.263-0.425,0.302-0.617l0.521-2.573
			l0.52-2.573c0-0.002,0-0.004,0-0.005l0.07-0.342l0.63-2.957l0.558-2.612c0.042-0.19,0.234-0.345,0.428-0.346l9.213-0.005
			c0.194,0,0.317-0.155,0.272-0.345"/>
		<path id="path370" fill="#222222" d="M1957.881-415.513c-0.194,0.002-0.514,0.003-0.709,0.003h-2.948
			c-0.195,0-0.445,0.132-0.555,0.293l-6.52,9.552c-0.111,0.161-0.236,0.137-0.279-0.053l-0.48-2.105
			c-0.042-0.189-0.238-0.344-0.433-0.344h-4.191c-0.196,0-0.312,0.152-0.258,0.339l1.878,6.58c0.053,0.188,0.057,0.496,0.009,0.684
			l-0.82,3.184c-0.048,0.188,0.072,0.343,0.266,0.343h4.143c0.195,0,0.394-0.155,0.442-0.343l0.819-3.184
			c0.049-0.188,0.184-0.471,0.302-0.627l10.584-14.048c0.118-0.155,0.054-0.283-0.141-0.281L1957.881-415.513L1957.881-415.513z"/>
		<path id="path372" fill="#222222" d="M1924.583-407.273v-0.004c-0.025,0.211-0.219,0.367-0.414,0.367h-5.314
			c-0.184,0-0.276-0.126-0.25-0.28c0.002-0.004,0.002-0.008,0.005-0.012c0,0-0.003,0.002-0.003,0.002c0-0.006,0-0.013,0.002-0.018
			c0,0,0.011-0.038,0.025-0.091c0.508-1.349,1.542-2.235,3.484-2.235C1924.305-409.543,1924.731-408.473,1924.583-407.273
			 M1923.024-413.406c-6.82,0-8.438,4.141-9.344,8.319c-0.906,4.259-0.828,8.242,6.23,8.242h0.25
			c0.023-0.002,0.044-0.002,0.067-0.002h0.198h0.072h0.186c0.028-0.001,0.055-0.001,0.083-0.001c0.07,0,0.142,0,0.212,0h0.05
			c0.28,0,0.562-0.002,0.847-0.003h0.014c1.864-0.007,3.734-0.021,4.491-0.028c0.193-0.002,0.384-0.159,0.423-0.348l0.286-1.397
			l0.055-0.271l0.341-1.666c0.039-0.191-0.089-0.347-0.284-0.347h-6.346c-2.523,0-3.273-0.672-2.997-2.643h10.144v0.001
			c0.003,0,0.005-0.001,0.006-0.001c0.162-0.002,0.31-0.113,0.37-0.262c0.012-0.028,0.021-0.058,0.024-0.089v0.002
			c1.507-5.681,1.075-9.508-5.377-9.508"/>
		<path id="path374" fill="#222222" d="M1890.784-407.294l-0.096,0.339c0,0.001,0,0.001,0,0.001l-0.766,2.715l-0.766,2.714
			c-0.053,0.188-0.255,0.341-0.451,0.341h-4.054c-3.075,0-3.824-2.405-3.075-5.953c0.749-3.627,2.217-5.884,5.243-6.111
			C1890.955-413.561,1891.783-410.652,1890.784-407.294 M1893.564-401.393c0,0,1.911-4.641,2.346-7.322
			c0.592-3.588-1.204-8.793-8.144-8.793c-6.9,0-9.896,4.97-11.039,10.37c-1.143,5.441,0.355,10.212,7.215,10.173l5.413-0.021
			l5.059-0.017c0.195-0.002,0.394-0.157,0.443-0.345l0.882-3.362c0.048-0.188-0.07-0.343-0.265-0.345l-0.845-0.005l-0.844-0.005
			c-0.166-0.001-0.261-0.108-0.241-0.25C1893.547-401.339,1893.553-401.366,1893.564-401.393"/>
		<path id="path376" fill="#222222" d="M1927.722-404.498c0,0.127-0.104,0.232-0.233,0.232c-0.128,0-0.233-0.105-0.233-0.232
			c0-0.129,0.105-0.234,0.233-0.234C1927.618-404.732,1927.722-404.627,1927.722-404.498"/>
		<path id="path378" fill="#FAA624" d="M1831.312-411.387v8.41c0,6.193,5.079,11.213,11.345,11.213h2.837
			c6.267,0,11.346-5.02,11.346-11.213v-8.41c0-1.548-1.27-2.805-2.837-2.805h-19.855
			C1832.581-414.191,1831.312-412.935,1831.312-411.387"/>
		<path id="path380" fill="#FFFFFF" d="M1835.566-404.379c0,4.645,3.81,8.411,8.51,8.411c4.699,0,8.509-3.766,8.509-8.411h-4.255
			c0,2.322-1.905,4.205-4.254,4.205c-2.35,0-4.255-1.884-4.255-4.205v-4.205h-4.255V-404.379L1835.566-404.379z"/>
		<path id="path382" fill="#FFFFFF" d="M1849.394-410.897l-0.993,4.066l4.113,1.051l1.064-4.065L1849.394-410.897z"/>
		<path id="path384" fill="#FAA624" d="M1908.744-388.455h-0.672l-0.097-0.191c0,0-0.544,0.231-0.911,0.231
			c-1.033,0-1-0.839-0.817-1.68l0.344-1.632h0.769l-0.152,1.264l-0.072,0.385c-0.105,0.479-0.169,0.83,0.336,0.83h0.576l0.537-2.48
			h0.855L1908.744-388.455z"/>
		<path id="path386" fill="#FAA624" d="M1912.52-390.951c0,0-0.937,0.007-1.191,0.007c-0.545,0-0.6,0.17-0.641,0.345l-0.032,0.16
			l1.728,0.129c0,0,0.009,0.552-0.064,0.864c-0.104,0.52-0.64,1.048-1.608,1.048c-0.48,0-1.257-0.184-1.257-0.184l0.136-0.634
			c0,0,0.938,0,1.192,0c0.529,0,0.6-0.144,0.633-0.288l0.04-0.208l-1.696-0.128c0,0-0.064-0.424,0.024-0.848
			c0.127-0.577,0.656-1.073,1.624-1.073c0.48,0,1.256,0.177,1.256,0.177L1912.52-390.951z"/>
		<path id="path388" fill="#FAA624" d="M1914.616-390.991c-0.431,0-0.656,0.223-0.744,0.623l1.233-0.104
			C1915.16-390.744,1915.105-390.991,1914.616-390.991z M1913.752-389.774c-0.056,0.399,0.096,0.535,0.608,0.535h1.288l-0.127,0.609
			c0,0-0.777,0.215-1.353,0.215c-1.431,0-1.447-0.807-1.264-1.671c0.184-0.848,0.512-1.688,1.897-1.688
			c1.336,0,1.4,0.809,1.072,2.001H1913.752z"/>
		<path id="path390" fill="#FAA624" d="M1918.16-390.303c0.113-0.512,0.08-0.608-0.184-0.608h-0.399l-0.255,1.2l-0.392,1.255h-0.744
			l0.608-2.847l0.088-0.416h0.68l0.088,0.191c0,0,0.393-0.232,0.776-0.232c0.817,0,0.753,0.616,0.577,1.456H1918.16z"/>
		<path id="path392" fill="#FAA624" d="M1922.321-392.136c-0.328,0-0.536-0.095-0.456-0.495c0.088-0.4,0.344-0.496,0.664-0.496
			s0.536,0.096,0.448,0.496C1922.897-392.239,1922.641-392.136,1922.321-392.136z M1921.969-388.455h-0.737l0.145-1.28l0.255-1.184
			l-0.511-0.112l0.144-0.696h1.4L1921.969-388.455z"/>
		<path id="path394" fill="#FAA624" d="M1925.495-388.455h-0.767l0.144-1.263l0.08-0.359c0.104-0.481,0.16-0.833-0.344-0.833h-0.577
			l-0.528,2.455h-0.856l0.697-3.272h0.672l0.105,0.192c0,0,0.536-0.231,0.904-0.231c1.024,0,1,0.831,0.816,1.68L1925.495-388.455z"
			/>
		<path id="path396" fill="#FAA624" d="M1928.599-391.031l-0.919,0.112l-0.264,1.248c-0.073,0.345-0.073,0.44,0.231,0.44
			c0.168,0,0.616,0,0.616,0l-0.127,0.656c0,0-0.561,0.168-0.802,0.168c-0.944,0-0.935-0.52-0.767-1.296l0.256-1.224l-0.512-0.112
			l0.153-0.695h0.535l0.304-0.825h0.728l-0.177,0.825h0.897L1928.599-391.031z"/>
		<path id="path398" fill="#FAA624" d="M1930.511-390.991c-0.431,0-0.656,0.223-0.744,0.623l1.233-0.104
			C1931.056-390.744,1931-390.991,1930.511-390.991z M1929.647-389.774c-0.056,0.399,0.096,0.535,0.608,0.535h1.288l-0.127,0.609
			c0,0-0.776,0.215-1.352,0.215c-1.432,0-1.448-0.807-1.264-1.671c0.184-0.848,0.512-1.688,1.896-1.688
			c1.336,0,1.4,0.809,1.072,2.001H1929.647z"/>
		<path id="path400" fill="#FAA624" d="M1934.055-390.303c0.112-0.512,0.08-0.608-0.184-0.608h-0.399l-0.256,1.2l-0.391,1.255
			h-0.745l0.609-2.847l0.087-0.416h0.68l0.089,0.191c0,0,0.391-0.232,0.775-0.232c0.816,0,0.753,0.616,0.577,1.456H1934.055z"/>
		<path id="path402" fill="#FAA624" d="M1937.88-392.223c0,0-0.448,0-0.616,0c-0.329,0-0.353,0.209-0.416,0.505h0.832l-0.144,0.696
			l-0.88,0.12l-0.529,2.464l-0.399,1.272h-0.729l0.273-1.279l0.527-2.465l-0.512-0.112l0.144-0.696h0.536
			c0.169-0.76,0.423-1.369,1.344-1.369c0.241,0,0.713,0.2,0.713,0.2L1937.88-392.223z"/>
		<path id="path404" fill="#FAA624" d="M1939.328-390.927c-0.48,0-0.649,0.312-0.761,0.841c-0.112,0.535-0.072,0.824,0.408,0.824
			h0.673l0.344-1.665H1939.328z M1940.767-390.463l-0.423,2.008h-0.665l-0.104-0.223c0,0-0.575,0.263-1,0.263
			c-1.016,0-1.072-0.807-0.887-1.671c0.176-0.848,0.583-1.688,1.608-1.688c0.664,0,1.712,0.184,1.712,0.184L1940.767-390.463z"/>
		<path id="path406" fill="#FAA624" d="M1944.041-390.935h-0.985c-0.496,0-0.791,0.352-0.904,0.857
			c-0.105,0.495,0.056,0.839,0.567,0.839h1.025l-0.137,0.641c0,0-0.719,0.191-1.272,0.191c-1.016,0-1.248-0.816-1.064-1.671
			c0.184-0.866,0.76-1.697,1.752-1.697c0.487,0,1.169,0.176,1.169,0.176L1944.041-390.935z"/>
		<path id="path408" fill="#FAA624" d="M1945.997-390.991c-0.431,0-0.656,0.223-0.744,0.623l1.231-0.104
			C1946.541-390.744,1946.485-390.991,1945.997-390.991z M1945.133-389.774c-0.056,0.399,0.096,0.535,0.608,0.535h1.289l-0.13,0.609
			c0,0-0.775,0.215-1.352,0.215c-1.432,0-1.448-0.807-1.264-1.671c0.184-0.848,0.513-1.688,1.897-1.688
			c1.335,0,1.4,0.809,1.072,2.001H1945.133z"/>
	</g>
</g>
</svg>
