<?xml version="1.0" encoding="utf-8"?>
<!-- Generator: Adobe Illustrator 16.0.0, SVG Export Plug-In . SVG Version: 6.00 Build 0)  -->
<!DOCTYPE svg PUBLIC "-//W3C//DTD SVG 1.1//EN" "http://www.w3.org/Graphics/SVG/1.1/DTD/svg11.dtd">
<svg version="1.1" id="Layer_1" xmlns="http://www.w3.org/2000/svg" xmlns:xlink="http://www.w3.org/1999/xlink" x="0px" y="0px"
	 width="200px" height="70px" viewBox="0 0 200 70" enable-background="new 0 0 200 70" xml:space="preserve">
<g>
	<path fill="#E23337" d="M57.615,44.64V26.418h2.356l11.15,14.679V26.418h2.23V44.64h-2.357L59.844,29.831V44.64H57.615z"/>
	<path fill="#E23337" d="M91.446,43.927c-1.469,0.561-3.054,0.841-4.753,0.841c-6.6,0-9.9-3.164-9.9-9.495
		c0-5.988,3.186-8.984,9.557-8.984c1.826,0,3.526,0.257,5.097,0.768v2.038c-1.57-0.595-3.186-0.893-4.842-0.893
		c-4.969,0-7.454,2.358-7.454,7.071c0,5.056,2.446,7.584,7.34,7.584c0.78,0,1.648-0.103,2.601-0.307v-6.193h2.355V43.927
		L91.446,43.927z"/>
	<path fill="#E23337" d="M95.206,37.605V26.417h2.355v11.188c0,3.499,1.742,5.25,5.226,5.25c3.482,0,5.225-1.751,5.225-5.25V26.417
		h2.357v11.188c0,4.775-2.527,7.161-7.582,7.161C97.733,44.767,95.206,42.381,95.206,37.605L95.206,37.605z"/>
	<path fill="#E23337" d="M116.932,26.417v16.31h9.532v1.911h-11.888V26.417H116.932z"/>
	<path fill="#E23337" d="M129.866,44.64h-2.446l9.061-20.627l9.059,20.627h-2.612l-2.356-5.735h-6.027l0.65-1.911h4.587
		l-3.402-8.258L129.866,44.64z"/>
	<path fill="#E23337" d="M148.025,44.64V26.418h7.773c3.467,0,5.197,1.456,5.197,4.371c0,2.368-1.692,4.124-5.082,5.262l6.256,8.589
		h-3.111l-5.796-8.193v-1.542c3.482-0.554,5.226-1.89,5.226-4.016c0-1.681-0.97-2.521-2.906-2.521h-5.199V44.64H148.025z"/>
	<path fill="#B63032" d="M171.002,26.417V39.39c0,3.501-2.062,5.248-6.182,5.248v-1.909c2.549,0,3.824-1.114,3.824-3.339V26.417
		H171.002z"/>
	<path fill="#B63032" d="M175.206,44.002v-2.166c1.911,0.679,3.975,1.02,6.192,1.02c3.135,0,4.703-1.146,4.703-3.441
		c0-1.952-1.156-2.931-3.467-2.931h-2.345c-3.814,0-5.723-1.656-5.723-4.97c0-3.483,2.442-5.226,7.329-5.226
		c2.124,0,4.099,0.257,5.926,0.766v2.167c-1.827-0.681-3.802-1.02-5.926-1.02c-3.313,0-4.97,1.104-4.97,3.312
		c0,1.953,1.12,2.93,3.363,2.93h2.345c3.881,0,5.824,1.659,5.824,4.971c0,3.568-2.354,5.353-7.061,5.353
		C179.182,44.767,177.117,44.511,175.206,44.002L175.206,44.002z"/>
	<path fill="#B3B3B3" d="M32.824,12.384l-21.282,7.489l3.363,27.882l17.94,9.861l18.035-9.994l3.361-27.882L32.824,12.384z"/>
	<path fill="#B63032" d="M52.12,21.352l-19.347-6.597v40.506l16.213-8.973L52.12,21.352z"/>
	<path fill="#E23337" d="M13.93,21.471l2.882,24.937l15.962,8.854V14.754L13.93,21.471z"/>
	<path fill="#F3F3F3" d="M37.258,34.902l-4.449-9.291l-3.916,9.291H37.258z M38.954,38.809H27.161l-2.639,6.6l-4.906,0.091
		l13.157-29.273l13.617,29.273h-4.548L38.954,38.809z"/>
	<path fill="#B3B3B3" d="M32.773,16.226l0.035,9.386l4.444,9.298h-4.469l-0.011,3.893l6.181,0.007l2.888,6.69l4.696,0.087
		L32.773,16.226z"/>
</g>
</svg>
